<?xml version="1.0" encoding="UTF-8" standalone="no"?>
<svg
   xmlns:dc="http://purl.org/dc/elements/1.1/"
   xmlns:cc="http://creativecommons.org/ns#"
   xmlns:rdf="http://www.w3.org/1999/02/22-rdf-syntax-ns#"
   xmlns:svg="http://www.w3.org/2000/svg"
   xmlns="http://www.w3.org/2000/svg"
   xmlns:sodipodi="http://sodipodi.sourceforge.net/DTD/sodipodi-0.dtd"
   xmlns:inkscape="http://www.inkscape.org/namespaces/inkscape"
   sodipodi:docname="Kanal32013.svg"
   inkscape:version="1.0 (4035a4fb49, 2020-05-01)"
   id="svg1572"
   version="1.1"
   viewBox="0 0 182 170"
   height="170mm"
   width="182mm">
  <defs
     id="defs1566">
    <inkscape:path-effect
       effect="spiro"
       id="path-effect2178"
       is_visible="true"
       lpeversion="1" />
    <inkscape:path-effect
       effect="spiro"
       id="path-effect2174"
       is_visible="true"
       lpeversion="1" />
    <inkscape:path-effect
       effect="spiro"
       id="path-effect2170"
       is_visible="true"
       lpeversion="1" />
    <inkscape:path-effect
       effect="spiro"
       id="path-effect2184"
       is_visible="true"
       lpeversion="1" />
  </defs>
  <sodipodi:namedview
     inkscape:window-maximized="0"
     inkscape:window-y="84"
     inkscape:window-x="581"
     inkscape:window-height="967"
     inkscape:window-width="1260"
     showgrid="false"
     inkscape:document-rotation="0"
     inkscape:current-layer="layer1"
     inkscape:document-units="mm"
     inkscape:cy="706.47041"
     inkscape:cx="484.15764"
     inkscape:zoom="0.35"
     inkscape:pageshadow="2"
     inkscape:pageopacity="0.0"
     borderopacity="1.0"
     bordercolor="#FF2400"
     pagecolor="#FF2400"
     id="base" />
  <metadata
     id="metadata1569">
    <rdf:RDF>
      <cc:Work
         rdf:about="">
        <dc:format>image/svg+xml</dc:format>
        <dc:type
           rdf:resource="http://purl.org/dc/dcmitype/StillImage" />
        <dc:title></dc:title>
      </cc:Work>
    </rdf:RDF>
  </metadata>
  <g
     id="layer1"
     inkscape:groupmode="layer"
     inkscape:label="Capa 1">
    <g
       style="stroke:#ca2027;stroke-opacity:1"
       id="g2275"
       transform="translate(-18.061922,-53.377149)">
      <path
         inkscape:original-d="m 133.51644,167.54085 c 3.52812,-3.65343 7.05598,-7.37011 10.58357,-11.05557 3.5276,-3.68546 0.50426,-1.07066 0.75599,-1.60638 0.25173,-0.53573 0.88228,-3.14952 1.32302,-4.72468 0.44074,-1.57515 0.31537,-5.66937 0.47265,-8.50445 0.15729,-2.83508 -2.33045,-6.1734 -3.49607,-9.26049 -1.16563,-3.0871 -3.96842,-3.02363 -5.95303,-4.53585 -1.98461,-1.51221 -3.46449,-1.19673 -5.19713,-1.7955"
         inkscape:path-effect="#path-effect2170"
         id="path2168"
         d="m 133.51644,167.54085 c 4.479,-2.58379 8.19754,-6.46817 10.58357,-11.05557 0.27316,-0.52519 0.52936,-1.0595 0.75599,-1.60638 0.62729,-1.51367 1.02403,-3.11369 1.32302,-4.72468 0.51981,-2.80077 0.74998,-5.66938 0.47265,-8.50445 -0.32582,-3.33082 -1.39366,-6.65657 -3.49607,-9.26049 -1.58003,-1.95693 -3.68867,-3.441 -5.95303,-4.53585 -1.6539,-0.79969 -3.4023,-1.40372 -5.19713,-1.7955"
         style="fill:none;stroke:#ca2027;stroke-width:0.264583px;stroke-linecap:butt;stroke-linejoin:miter;stroke-opacity:1" />
      <path
         inkscape:original-d="m 132.00544,126.05793 c 2.36882,-1.17034 4.73738,-2.3855 7.10568,-3.57864 2.3683,-1.19315 1.42573,-1.20242 2.1382,-1.80402 0.71246,-0.60161 1.82673,-5.96872 2.7397,-8.95347 0.91297,-2.98476 -0.66778,-5.92423 -1.00206,-8.88674 -0.33429,-2.962504 -7.30493,-7.973431 -10.95779,-11.960546 -3.65286,-3.987115 -10.42319,-2.895381 -15.63518,-4.343469 -5.21198,-1.448088 -8.55236,-0.04447 -12.82893,-0.0671 -4.276578,-0.02262 -9.354236,3.029116 -14.031752,4.543277 -4.677513,1.514162 -4.721587,4.187385 -7.082779,6.280679 -2.361189,2.093296 -2.004333,3.474729 -3.006894,5.211689 -1.002565,1.73697 -1.648045,6.72652 -2.472463,10.08937 -0.82442,3.36286 -0.04431,1.4257 -0.06686,2.13816"
         inkscape:path-effect="#path-effect2174"
         id="path2172"
         d="m 132.00544,126.05793 c 2.52161,-0.84955 4.92186,-2.05839 7.10568,-3.57864 0.76704,-0.53397 1.512,-1.11023 2.1382,-1.80402 1.06806,-1.18333 1.75486,-2.67426 2.15606,-4.21701 0.40121,-1.54274 0.52936,-3.14332 0.58364,-4.73646 0.10206,-2.99519 -0.0594,-6.04192 -1.00206,-8.88674 -1.74336,-5.261319 -6.05186,-9.38128 -10.95779,-11.960546 -4.81612,-2.532048 -10.22673,-3.747739 -15.63518,-4.343469 -4.25984,-0.469213 -8.57282,-0.569008 -12.82893,-0.0671 -4.919511,0.58014 -9.788402,1.987473 -14.031752,4.543277 -2.719563,1.638015 -5.170104,3.746751 -7.082779,6.280679 -1.21109,1.604463 -2.201276,3.369949 -3.006894,5.211689 -1.394597,3.18823 -2.239368,6.61729 -2.472463,10.08937 -0.04777,0.71162 -0.07008,1.42495 -0.06686,2.13816"
         style="fill:none;stroke:#ca2027;stroke-width:0.264583px;stroke-linecap:butt;stroke-linejoin:miter;stroke-opacity:1" />
      <path
         sodipodi:nodetypes="ccssssssssc"
         inkscape:original-d="m 76.904312,114.72712 h 22.049729 c 0,0 2.64e-4,-1.42485 0,-2.13768 -2.65e-4,-0.71282 0.392433,-1.46332 0.588253,-2.19538 0.195819,-0.73206 1.201526,-2.53981 2.107536,-3.54749 1.59828,-1.77761 2.965,-1.86882 4.27218,-2.21908 1.68909,-0.45259 3.13588,-0.32314 4.92575,-0.32314 1.7081,0 2.63112,0.2365 3.92266,0.23624 1.29153,-2.6e-4 6.75921,3.75087 6.92727,6.50799 0.33397,5.47903 -0.003,1.7198 0.1079,3.54588 0.11106,1.82608 -1.31836,3.02597 -4.87767,4.87767"
         inkscape:path-effect="#path-effect2178"
         id="path2176"
         d="m 76.904312,114.72712 h 22.049729 c -0.100127,-0.70786 -0.100127,-1.42982 0,-2.13768 0.106313,-0.7516 0.324308,-1.48367 0.588253,-2.19538 0.481906,-1.29942 1.134086,-2.56102 2.107536,-3.54749 1.14322,-1.15851 2.68058,-1.87863 4.27218,-2.21908 1.61224,-0.34486 3.27705,-0.31959 4.92575,-0.32314 1.31234,-0.003 2.63635,-0.0238 3.92266,0.23624 1.63601,0.33078 3.17695,1.12263 4.39467,2.26416 1.21772,1.14154 2.10791,2.62965 2.5326,4.24383 0.30378,1.15462 0.37052,2.38121 0.1079,3.54588 -0.26679,1.18318 -0.87512,2.28728 -1.73275,3.14492 -0.85764,0.85763 -1.96174,1.46596 -3.14492,1.73275"
         style="fill:none;stroke:#ca2027;stroke-width:0.264583px;stroke-linecap:butt;stroke-linejoin:miter;stroke-opacity:1" />
      <path
         id="path2180"
         d="m 116.92792,119.47213 h -12.82905 v 15.23981 c 0,0 18.35423,-2.40161 18.35423,9.36505 0,11.76666 -16.06593,9.06258 -16.06593,9.06258 0,0 -9.735983,-1.15302 -9.735983,-12.84519"
         style="fill:none;stroke:#ca2027;stroke-width:0.264583px;stroke-linecap:butt;stroke-linejoin:miter;stroke-opacity:1" />
      <path
         inkscape:original-d="M 96.651184,140.29438 H 73.93873 c 0,0 2.24868,10.71733 3.372625,16.07561 1.123945,5.35827 2.065872,3.1685 3.098411,4.75235 1.032539,1.58385 5.478833,4.57335 8.217852,6.85962 2.739017,2.28628 8.696725,2.7741 13.044692,4.16076 4.34797,1.38666 9.98332,0.16537 14.97459,0.24765 4.99126,0.0823 11.24662,-3.23275 16.86954,-4.84952"
         inkscape:path-effect="#path-effect2184"
         id="path2182"
         d="M 96.651184,140.29438 H 73.93873 c -0.368466,5.5317 0.812007,11.15842 3.372625,16.07561 0.874886,1.68005 1.907803,3.2791 3.098411,4.75235 2.256731,2.79246 5.077022,5.12012 8.217852,6.85962 4.013902,2.22303 8.507841,3.47499 13.044692,4.16076 4.95104,0.74837 10.00263,0.84131 14.97459,0.24765 5.83485,-0.69669 11.55548,-2.34121 16.86954,-4.84952"
         style="fill:none;stroke:#ca2027;stroke-width:0.264583px;stroke-linecap:butt;stroke-linejoin:miter;stroke-opacity:1" />
    </g>
    <path
       id="path2298"
       d="m 91.188566,32.900101 c -8.073414,0.0424 -16.503605,1.9465 -22.869313,7.15376 -5.787152,4.6821 -8.740312,12.095299 -9.280192,19.37994 0.110202,0.562779 -0.480819,1.755061 0.198271,1.840979 7.12361,0 14.24723,0 21.370851,0 0.11852,-1.626249 0.246409,-3.35225 0.972479,-4.876268 0.97256,-2.342052 2.875491,-4.399582 5.409919,-5.026671 2.390262,-0.75977 4.952437,-0.454761 7.425055,-0.509611 2.723362,-0.0816 5.54128,0.9672 7.316544,3.078361 1.87155,1.88096 2.51455,4.6718 2.14021,7.237359 -0.57553,2.80725 -3.21431,5.258491 -6.179834,5.041839 -3.811669,0.0521 -7.624013,0.0164 -11.435953,0.0272 -0.123592,3.593071 -0.01781,7.281119 -0.0531,10.910811 0.0374,1.312418 -0.074,2.687119 0.0536,3.961799 4.443839,-0.1104 9.111504,-0.28416 13.215864,1.710061 2.575663,1.145889 4.597703,3.57192 4.912533,6.41373 0.47056,3.062189 -0.43323,6.5151 -3.01879,8.414819 -2.823513,2.122421 -6.493533,2.549421 -9.940643,2.446761 -3.354274,0.13955 -6.831275,-0.917872 -9.249786,-3.31565 -2.23941,-2.109531 -3.385058,-5.13139 -3.636849,-8.154591 -0.15041,-0.431731 0.0545,-1.060291 -0.22394,-1.39455 -3.198019,-0.260879 -6.425729,-0.0867 -9.63475,-0.14559 -4.208539,-0.0011 -8.417081,-2.64e-4 -12.62562,-5.29e-4 -0.492871,7.132363 1.704131,14.50585 6.123969,20.17729 3.75847,4.78202 9.093452,8.2069 14.92136,9.88603 12.447431,3.6204 26.204589,2.5059 37.937679,-2.98844 4.99874,-2.69228 9.03752,-7.1189 11.40754,-12.26648 2.01217,-4.8897 2.50493,-10.364958 1.7002,-15.573149 -0.71509,-4.256968 -3.17113,-8.26022 -6.91587,-10.49293 -2.16378,-1.38502 -4.57446,-2.3245 -7.03775,-3.01044 -0.48912,-0.266121 0.3771,-0.513278 0.57448,-0.589349 2.95847,-1.16232 5.83057,-2.72959 8.15199,-4.923351 2.43365,-2.48155 2.78659,-6.16436 2.83596,-9.464299 0.10614,-3.68795 -0.22239,-7.524731 -2.04597,-10.811161 -3.01157,-5.8595 -8.93272,-9.6096 -15.04865,-11.5902 -5.62045,-1.80352 -11.583284,-2.52676 -17.471523,-2.54742 z"
       style="fill:#ca2027;fill-opacity:1;fill-rule:evenodd;stroke:#ca2027;stroke-width:0.265001;stroke-opacity:1" />
    <path
       sodipodi:nodetypes="sccccccccccccccccccccccccccccccccccccssccc"
       id="path2300"
       d="m 90.952097,32.658411 c -6.850684,0.0513 -13.879835,1.36445 -19.756895,5.04521 -5.299059,3.08797 -9.15951,8.312738 -10.960661,14.136829 -0.929888,2.99425 -1.5036,6.131951 -1.516359,9.2686 0.258721,0.608409 1.143741,0.237659 1.648191,0.371181 6.82571,0.085 13.652269,-0.0021 20.478289,-0.005 0.164449,-1.757651 0.272309,-3.636211 1.102741,-5.265 0.866508,-1.9969 2.655589,-4.66353 4.746609,-5.377611 2.336001,-0.980609 4.924174,-0.486381 7.380224,-0.614989 1.37472,0.0299 3.60275,0.980188 4.86985,1.626758 3.550694,1.279581 5.211204,4.815332 4.731504,8.642152 -0.16489,2.56154 -2.22286,4.832001 -4.669123,5.4278 -4.33913,0.02421 -8.678265,0.0485 -13.017395,0.0726 -0.12292,3.63678 -0.01781,7.36768 -0.0527,11.04079 0.0367,1.44513 -0.0725,2.950692 0.053,4.35905 3.97501,0.0997 8.112776,-0.407299 11.898106,1.082641 2.700332,0.890021 5.296312,2.83397 6.024102,5.70298 0.89369,3.330101 0.0576,7.37476 -2.89846,9.414989 -3.407002,2.322692 -7.764994,2.548619 -11.739517,2.14363 -3.26118,-0.304789 -6.372511,-1.99267 -8.260551,-4.694439 -1.730849,-2.32602 -2.137868,-5.2857 -2.388989,-8.095871 -4.62493,-0.12351 -9.32814,-0.0441 -13.983351,-0.0891 -2.961148,0.0269 -5.981128,-0.0893 -8.90578,0.02641 -0.16986,4.70572 0.451152,9.48459 2.328892,13.831529 3.029558,7.48829 9.434438,13.45035 17.056679,16.08004 9.277551,3.18052 19.451945,3.50728 28.998837,1.37828 3.81939,-0.89878 7.60765,-2.07588 11.12718,-3.82477 0.30335,-0.3099 0.7836,-0.27054 1.12465,-0.5928 4.848,-3.10037 8.84037,-7.6989 10.87141,-13.11259 1.07702,-3.27599 1.59599,-6.720381 1.49902,-10.169299 0.14692,-4.64226 -1.37783,-9.486572 -4.7287,-12.79448 -2.60269,-2.58913 -6.08627,-4.00777 -9.54262,-5.054891 2.56876,-0.933529 5.00645,-2.260219 7.2283,-3.8467 0.25297,-0.343609 0.67342,-0.40521 0.9644,-0.793459 2.35226,-2.13233 3.15449,-5.398201 3.29012,-8.457832 0.25763,-4.635199 0.0383,-9.605158 -2.57325,-13.617581 -3.46308,-5.710207 -9.56339,-9.288737 -15.85335,-11.094987 -5.36947,-1.56062 -10.995532,-2.14886 -16.574362,-2.15016 z M 77.895291,87.08613 c 0.14814,-0.0643 0.87522,0.13865 0.344792,0.0783 -0.15008,-0.0311 -0.870382,-0.0891 -0.344792,-0.0783 z"
       style="fill:#ca2027;fill-opacity:1;fill-rule:evenodd;stroke:#ca2027;stroke-width:0.265001;stroke-opacity:1" />
    <path
       style="fill:#ca2027;fill-opacity:1;stroke:#ca2027;stroke-width:0.264583px;stroke-linecap:butt;stroke-linejoin:miter;stroke-opacity:1"
       d="M 36.488887,6.7262708 31.118058,37.167361 93.572737,6.6719008 Z"
       id="path2302" />
    <path
       style="fill:#ca2027;fill-opacity:1;stroke:#ca2027;stroke-width:0.264583px;stroke-linecap:butt;stroke-linejoin:miter;stroke-opacity:1"
       d="M 172.83997,128.17138 152.39132,6.6752308 h -18.30824 z"
       id="path2325" />
    <path
       style="fill:#ca2027;fill-opacity:1;stroke:#ca2027;stroke-width:0.264583px;stroke-linecap:butt;stroke-linejoin:miter;stroke-opacity:1"
       d="m 22.895188,83.58901 -12.65031,76.52658 H 50.972601 178.3188 l -4.91547,-26.86839 -88.158197,-1.53184 -61.889335,-1.34695 z"
       id="path2342" />
  </g>
</svg>
